<?xml version="1.0" standalone="no"?>
<!DOCTYPE svg PUBLIC "-//W3C//DTD SVG 20010904//EN"
 "http://www.w3.org/TR/2001/REC-SVG-20010904/DTD/svg10.dtd">
<svg version="1.0" xmlns="http://www.w3.org/2000/svg"
 width="997.000000pt" height="997.000000pt" viewBox="0 0 997.000000 997.000000"
 preserveAspectRatio="xMidYMid meet">
<metadata>
Created by potrace 1.11, written by Peter Selinger 2001-2013
</metadata>
<g transform="translate(0.000000,997.000000) scale(0.100000,-0.100000)"
fill="#000000" stroke="none">
<path d="M4580 9939 c-1537 -133 -2888 -930 -3737 -2204 -472 -708 -748 -1518
-814 -2385 -17 -223 -6 -717 20 -930 73 -594 225 -1107 481 -1625 383 -776
952 -1427 1675 -1917 687 -467 1459 -741 2330 -830 198 -20 729 -17 935 5 470
51 930 164 1355 332 160 63 531 246 680 335 722 432 1313 1023 1745 1745 89
149 272 520 335 680 168 425 281 885 332 1355 22 206 25 737 5 935 -111 1088
-520 2040 -1219 2835 -743 844 -1764 1417 -2868 1610 -282 49 -435 61 -800 65
-192 2 -397 -1 -455 -6z m477 -1545 c173 -86 430 -528 518 -889 l26 -110 -19
-485 c-10 -267 -16 -488 -12 -492 3 -4 492 -240 1085 -524 594 -283 1111 -532
1148 -551 141 -75 234 -201 262 -359 28 -157 14 -389 -29 -473 -9 -16 -32 -42
-52 -57 -30 -23 -48 -28 -112 -32 -49 -2 -101 2 -143 12 -37 8 -546 150 -1132
316 -585 165 -1069 300 -1075 300 -6 0 -12 -69 -16 -182 -52 -1427 -52 -1409
-36 -1422 8 -7 285 -181 615 -385 630 -390 649 -404 698 -505 43 -90 52 -148
52 -341 0 -169 -1 -183 -24 -228 -12 -26 -39 -60 -59 -75 -32 -24 -44 -27
-111 -26 -75 1 -86 5 -696 244 -341 133 -627 245 -636 247 -13 4 -17 -7 -23
-54 -13 -110 -80 -204 -181 -253 -67 -32 -179 -34 -246 -3 -103 46 -173 145
-187 261 l-7 61 -645 -246 c-570 -217 -652 -246 -706 -247 -81 -1 -131 30
-169 107 -22 46 -27 73 -32 163 -7 133 10 293 38 369 41 109 69 129 729 536
333 204 609 375 614 379 6 7 -23 961 -39 1245 -2 44 -4 136 -5 205 0 69 -4
131 -9 139 -7 11 -209 -43 -1062 -284 -580 -164 -1090 -307 -1134 -317 -105
-26 -221 -22 -262 8 -37 27 -70 77 -86 128 -8 26 -12 102 -11 211 1 184 13
253 61 348 29 57 109 146 168 187 22 15 542 267 1155 560 613 293 1116 533
1118 535 2 2 -5 226 -14 497 l-18 495 23 94 c90 368 352 814 526 895 64 30 89
30 152 -2z"/>
</g>
</svg>
